# Blender v2.90.1 OBJ File: ''
# www.blender.org
o Cube
v -1.000000 1.000000 1.000000
v -1.000000 -1.000000 1.000000
v -1.000000 1.000000 -1.000000
v -1.000000 -1.000000 -1.000000
v 1.000000 1.000000 1.000000
v 1.000000 -1.000000 1.000000
v 1.000000 1.000000 -1.000000
v 1.000000 -1.000000 -1.000000
v -1.000000 1.000000 1.000000
v -1.000000 -1.000000 1.000000
v -1.000000 1.000000 -1.000000
v -1.000000 -1.000000 -1.000000
v 1.000000 1.000000 1.000000
v 1.000000 -1.000000 1.000000
v 1.000000 1.000000 -1.000000
v 1.000000 -1.000000 -1.000000
v -5.470054 1.000000 1.000000
v -5.470054 -1.000000 1.000000
v -5.470054 1.000000 -1.000000
v -5.470054 -1.000000 -1.000000
v 1.000000 -1.000000 1.000000
v 1.000000 -1.000000 -1.000000
v -1.000000 -1.000000 1.000000
v -1.000000 -1.000000 -1.000000
v 1.000000 -1.000000 1.000000
v 1.000000 -1.000000 -1.000000
v -1.000000 -1.000000 1.000000
v -1.000000 -1.000000 -1.000000
v 1.000000 -2.749025 1.000000
v 1.000000 -2.749025 -1.000000
v -1.000000 -2.749025 1.000000
v -1.000000 -2.749025 -1.000000
vt 0.625000 0.750000
vt 0.875000 0.500000
vt 0.625000 0.500000
vt 0.375000 1.000000
vt 0.375000 0.750000
vt 0.375000 0.250000
vt 0.625000 0.000000
vt 0.375000 0.000000
vt 0.125000 0.750000
vt 0.375000 0.500000
vt 0.125000 0.500000
vt 0.625000 0.250000
vt 0.875000 0.500000
vt 0.625000 0.750000
vt 0.625000 0.500000
vt 0.375000 1.000000
vt 0.375000 0.750000
vt 0.625000 0.000000
vt 0.375000 0.250000
vt 0.375000 0.000000
vt 0.375000 1.000000
vt 0.375000 0.750000
vt 0.625000 0.750000
vt 0.625000 0.250000
vt 0.375000 0.500000
vt 0.625000 0.500000
vt 0.375000 0.750000
vt 0.375000 0.500000
vt 0.375000 0.250000
vt 0.375000 0.500000
vt 0.375000 0.250000
vt 0.375000 0.000000
vt 0.375000 0.500000
vt 0.375000 1.000000
vt 0.375000 0.750000
vt 0.375000 0.750000
vt 0.375000 0.000000
vt 0.000100 0.999900
vt 0.999900 0.000100
vt 0.999900 0.999900
vt 0.375000 0.000000
vt 0.375000 0.500000
vt 0.375000 0.250000
vt 0.875000 0.750000
vt 0.625000 1.000000
vt 0.875000 0.750000
vt 0.625000 1.000000
vt 0.375000 1.000000
vt 0.000100 0.000100
vn 0.0000 -1.0000 0.0000
vn 0.0000 0.0000 1.0000
vn -1.0000 0.0000 0.0000
vn 0.0000 1.0000 0.0000
vn 1.0000 0.0000 0.0000
vn 0.0000 0.0000 -1.0000
s off
f 3/1/1 5/2/1 1/3/1
f 8/4/2 3/1/2 4/5/2
f 6/6/3 7/7/3 8/8/3
f 8/9/4 2/10/4 6/11/4
f 4/5/5 1/3/5 2/10/5
f 2/10/6 5/12/6 6/6/6
f 13/13/4 11/14/4 9/15/4
f 11/14/6 16/16/6 12/17/6
f 15/18/5 14/19/5 16/20/5
f 12/17/2 22/21/2 24/22/2
f 12/17/6 19/23/6 11/14/6
f 13/24/2 10/25/2 14/19/2
f 17/26/3 20/27/3 18/28/3
f 9/15/2 18/28/2 10/25/2
f 10/25/1 20/27/1 12/17/1
f 11/14/4 17/26/4 9/15/4
f 21/29/2 27/30/2 25/31/2
f 16/20/2 21/29/2 22/32/2
f 10/25/2 24/22/2 23/33/2
f 14/19/2 23/33/2 21/29/2
f 26/34/6 32/35/6 28/36/6
f 24/22/2 26/34/2 28/36/2
f 22/32/2 25/31/2 26/37/2
f 23/33/2 28/36/2 27/30/2
f 31/38/1 30/39/1 29/40/1
f 25/31/5 30/41/5 26/37/5
f 28/36/3 31/42/3 27/30/3
f 27/30/2 29/43/2 25/31/2
f 3/1/1 7/44/1 5/2/1
f 8/4/2 7/45/2 3/1/2
f 6/6/3 5/12/3 7/7/3
f 8/9/4 4/5/4 2/10/4
f 4/5/5 3/1/5 1/3/5
f 2/10/6 1/3/6 5/12/6
f 13/13/4 15/46/4 11/14/4
f 11/14/6 15/47/6 16/16/6
f 15/18/5 13/24/5 14/19/5
f 12/17/2 16/16/2 22/21/2
f 12/17/6 20/27/6 19/23/6
f 13/24/2 9/15/2 10/25/2
f 17/26/3 19/23/3 20/27/3
f 9/15/2 17/26/2 18/28/2
f 10/25/1 18/28/1 20/27/1
f 11/14/4 19/23/4 17/26/4
f 21/29/2 23/33/2 27/30/2
f 16/20/2 14/19/2 21/29/2
f 10/25/2 12/17/2 24/22/2
f 14/19/2 10/25/2 23/33/2
f 26/34/6 30/48/6 32/35/6
f 24/22/2 22/21/2 26/34/2
f 22/32/2 21/29/2 25/31/2
f 23/33/2 24/22/2 28/36/2
f 31/38/1 32/49/1 30/39/1
f 25/31/5 29/43/5 30/41/5
f 28/36/3 32/35/3 31/42/3
f 27/30/2 31/42/2 29/43/2
